<svg width="86" height="86" viewBox="0 0 86 86" fill="none" xmlns="http://www.w3.org/2000/svg">
<path d="M71.888 66.9994C75.7475 62.3557 78.4319 56.8507 79.714 50.9501C80.9961 45.0496 80.8381 38.927 79.2535 33.1004C77.6689 27.2738 74.7043 21.9145 70.6104 17.476C66.5166 13.0374 61.4139 9.65018 55.7341 7.60077C50.0543 5.55136 43.9644 4.90009 37.9797 5.70204C31.9949 6.50399 26.2913 8.73557 21.3514 12.208C16.4115 15.6804 12.3806 20.2916 9.59973 25.6513C6.81883 31.0111 5.36973 36.9618 5.37501 43C5.37704 51.7779 8.47033 60.2747 14.1121 66.9994L14.0583 67.0451C14.2465 67.2708 14.4615 67.4643 14.655 67.6874C14.8968 67.9642 15.1575 68.2249 15.4075 68.4936C16.16 69.3106 16.934 70.0954 17.7456 70.8318C17.9928 71.0575 18.2481 71.2671 18.4981 71.4821C19.3581 72.2239 20.2423 72.928 21.1587 73.5838C21.277 73.6644 21.3845 73.7692 21.5027 73.8525V73.8203C27.7971 78.2497 35.306 80.627 43.0027 80.627C50.6994 80.627 58.2083 78.2497 64.5027 73.8203V73.8525C64.621 73.7692 64.7258 73.6644 64.8467 73.5838C65.7605 72.9253 66.6473 72.2239 67.5073 71.4821C67.7573 71.2671 68.0126 71.0548 68.2598 70.8318C69.0715 70.0927 69.8455 69.3106 70.598 68.4936C70.8479 68.2249 71.1059 67.9642 71.3505 67.6874C71.5413 67.4643 71.759 67.2708 71.9471 67.0424L71.888 66.9994ZM43 21.5C45.3919 21.5 47.7301 22.2093 49.7189 23.5382C51.7078 24.8671 53.2578 26.7558 54.1732 28.9657C55.0885 31.1755 55.328 33.6072 54.8614 35.9531C54.3947 38.2991 53.2429 40.454 51.5516 42.1453C49.8602 43.8367 47.7053 44.9885 45.3594 45.4551C43.0134 45.9218 40.5818 45.6823 38.3719 44.7669C36.1621 43.8516 34.2733 42.3015 32.9444 40.3127C31.6156 38.3239 30.9063 35.9857 30.9063 33.5938C30.9063 30.3863 32.1804 27.3102 34.4484 25.0422C36.7165 22.7742 39.7926 21.5 43 21.5V21.5ZM21.5188 66.9994C21.5654 63.4706 22.9995 60.1021 25.5107 57.6225C28.022 55.143 31.4084 53.7518 34.9375 53.75H51.0625C54.5916 53.7518 57.9781 55.143 60.4893 57.6225C63.0005 60.1021 64.4346 63.4706 64.4812 66.9994C58.5871 72.3108 50.9342 75.2502 43 75.2502C35.0658 75.2502 27.4129 72.3108 21.5188 66.9994V66.9994Z" fill="white"/>
</svg>
